<svg xmlns="http://www.w3.org/2000/svg" width="105.075" height="23.168" viewBox="0 0 105.075 23.168">
  <g id="logo" transform="translate(-702.501 -476.411)">
    <path id="합치기_618" data-name="합치기 618" d="M95.254,21.608a11.416,11.416,0,0,1-2.686-1.328l1.9-2.038a7.776,7.776,0,0,0,1.694.823,6.779,6.779,0,0,0,2.347.45,2.823,2.823,0,0,0,1.661-.422,1.321,1.321,0,0,0,.591-1.129V17.91a1.04,1.04,0,0,0-.261-.706,2.188,2.188,0,0,0-.714-.517,8.327,8.327,0,0,0-1.043-.408q-.591-.19-1.222-.381-.8-.217-1.606-.517a5.84,5.84,0,0,1-1.456-.775A3.869,3.869,0,0,1,93.4,13.423a3.4,3.4,0,0,1-.412-1.741v-.054a4.031,4.031,0,0,1,1.5-3.209,4.924,4.924,0,0,1,1.648-.87,6.667,6.667,0,0,1,2.018-.3,9.194,9.194,0,0,1,2.773.441,12.673,12.673,0,0,1,2.883,1.393l-1.9,2.026a8.468,8.468,0,0,0-1.861-.848,6.111,6.111,0,0,0-1.977-.369,2.419,2.419,0,0,0-1.5.408,1.25,1.25,0,0,0-.536,1.033v.055a.932.932,0,0,0,.275.667,2.71,2.71,0,0,0,.728.516,8.155,8.155,0,0,0,1.043.436q.59.2,1.222.394.8.245,1.593.571a6.679,6.679,0,0,1,1.442.8,4.02,4.02,0,0,1,1.057,1.156,3.145,3.145,0,0,1,.411,1.659v.054a4.476,4.476,0,0,1-.411,1.986,3.89,3.89,0,0,1-1.14,1.4,5.121,5.121,0,0,1-1.716.843,7.6,7.6,0,0,1-2.114.285A9.75,9.75,0,0,1,95.254,21.608ZM46.58,14.69A7.524,7.524,0,1,1,54.1,22.158,7.5,7.5,0,0,1,46.58,14.69Zm3.349,0A4.175,4.175,0,1,0,54.1,10.546,4.164,4.164,0,0,0,49.929,14.69ZM87.222,22l-4.366-6.214-2.032,2.1V22H77.475V0h3.349V13.982L86.838,7.6h4.036l-5.766,5.86L91.066,22ZM64.085,22V7.61h3.35V9.863a8.005,8.005,0,0,1,.78-.976,5.107,5.107,0,0,1,.985-.812,5.052,5.052,0,0,1,1.232-.564,5.163,5.163,0,0,1,1.52-.206,4.844,4.844,0,0,1,3.806,1.5L73.17,11.526l-.223-.284a2.869,2.869,0,0,0-2.273-.911,3.093,3.093,0,0,0-2.341.938,3.639,3.639,0,0,0-.9,2.623V22ZM37.836,22,34.6,12.157,31.329,22H28.364l-4.7-14.5h3.4l2.91,9.866L33.2,7.441h2.829l3.24,9.921L42.23,7.5h3.322L40.8,22ZM17.215,22V7.6h3.35V22Zm-7.55,0V13.838a3.8,3.8,0,0,0-.8-2.6,2.868,2.868,0,0,0-2.273-.911,3.1,3.1,0,0,0-2.341.938,3.641,3.641,0,0,0-.9,2.624V22H0V0H3.349V9.862a8.075,8.075,0,0,1,.781-.976,5.107,5.107,0,0,1,.985-.812,5.052,5.052,0,0,1,1.232-.564,5.159,5.159,0,0,1,1.519-.206,4.846,4.846,0,0,1,3.807,1.5,5.826,5.826,0,0,1,1.341,4.033V22Zm6.969-19.75a2.257,2.257,0,1,1,2.257,2.244A2.25,2.25,0,0,1,16.634,2.245Z" transform="translate(703.001 476.911)" fill="#1080dd" stroke="rgba(0,0,0,0)" stroke-miterlimit="10" stroke-width="1"/>
    <rect id="사각형_5362" data-name="사각형 5362" width="104" height="23" transform="translate(703 476.58)" fill="none"/>
  </g>
</svg>
